<svg xmlns="http://www.w3.org/2000/svg" viewBox="0 0 234 247" width="24" height="24">
	<style>
		tspan { white-space:pre }
		.shp0 { fill: #000000 } 
	</style>
	<g id="g10">
		<g id="g12">
			<path id="path32" class="shp0" d="M130.14 127.36L130.14 109.34L125.57 112.87L122.55 108.75L130.63 102.82L135.93 102.82L135.93 127.36L130.14 127.36" />
			<path id="path34" fill-rule="evenodd" class="shp0" d="M159.89 115.02C159.89 116.75 159.71 118.41 159.36 119.98C159.02 121.55 158.46 122.93 157.7 124.12C156.94 125.31 155.95 126.26 154.74 126.96C153.53 127.67 152.05 128.02 150.32 128.02C148.58 128.02 147.1 127.67 145.88 126.96C144.66 126.26 143.66 125.31 142.88 124.12C142.11 122.93 141.55 121.55 141.2 119.98C140.85 118.41 140.68 116.75 140.68 115.02C140.68 113.29 140.85 111.64 141.2 110.08C141.55 108.52 142.11 107.16 142.88 105.99C143.66 104.82 144.66 103.9 145.88 103.2C147.1 102.51 148.58 102.16 150.32 102.16C152.05 102.16 153.53 102.51 154.74 103.2C155.95 103.9 156.94 104.82 157.7 105.99C158.46 107.16 159.02 108.52 159.36 110.08C159.71 111.64 159.89 113.29 159.89 115.02ZM153.92 115.02C153.92 114.26 153.87 113.42 153.79 112.49C153.69 111.57 153.52 110.7 153.27 109.91C153.01 109.11 152.65 108.44 152.17 107.9C151.7 107.35 151.08 107.08 150.32 107.08C149.56 107.08 148.93 107.35 148.45 107.9C147.96 108.44 147.58 109.11 147.32 109.91C147.05 110.7 146.87 111.57 146.78 112.49C146.69 113.42 146.64 114.26 146.64 115.02C146.64 115.81 146.69 116.67 146.78 117.6C146.87 118.54 147.05 119.41 147.32 120.2C147.58 121 147.96 121.67 148.45 122.21C148.93 122.76 149.56 123.03 150.32 123.03C151.08 123.03 151.7 122.76 152.17 122.21C152.65 121.67 153.01 121 153.27 120.2C153.52 119.41 153.69 118.54 153.79 117.6C153.87 116.67 153.92 115.81 153.92 115.02Z" />
			<path id="path36" class="shp0" d="M192.42 127.36L192.42 109.34L187.85 112.87L184.83 108.75L192.91 102.82L198.21 102.82L198.21 127.36L192.42 127.36" />
			<path id="path38" fill-rule="evenodd" class="shp0" d="M222.17 115.02C222.17 116.75 221.99 118.41 221.65 119.98C221.3 121.55 220.75 122.93 219.98 124.12C219.22 125.31 218.23 126.26 217.02 126.96C215.81 127.67 214.33 128.02 212.6 128.02C210.86 128.02 209.39 127.67 208.16 126.96C206.94 126.26 205.94 125.31 205.16 124.12C204.39 122.93 203.83 121.55 203.48 119.98C203.14 118.41 202.96 116.75 202.96 115.02C202.96 113.29 203.14 111.64 203.48 110.08C203.83 108.52 204.39 107.16 205.16 105.99C205.94 104.82 206.94 103.9 208.16 103.2C209.39 102.51 210.86 102.16 212.6 102.16C214.33 102.16 215.81 102.51 217.02 103.2C218.23 103.9 219.22 104.82 219.98 105.99C220.75 107.16 221.3 108.52 221.65 110.08C221.99 111.64 222.17 113.29 222.17 115.02ZM216.2 115.02C216.2 114.26 216.16 113.42 216.07 112.49C215.97 111.57 215.8 110.7 215.55 109.91C215.29 109.11 214.93 108.44 214.45 107.9C213.98 107.35 213.36 107.08 212.6 107.08C211.84 107.08 211.21 107.35 210.73 107.9C210.24 108.44 209.86 109.11 209.6 109.91C209.33 110.7 209.16 111.57 209.06 112.49C208.97 113.42 208.92 114.26 208.92 115.02C208.92 115.81 208.97 116.67 209.06 117.6C209.16 118.54 209.33 119.41 209.6 120.2C209.86 121 210.24 121.67 210.73 122.21C211.21 122.76 211.84 123.03 212.6 123.03C213.36 123.03 213.98 122.76 214.45 122.21C214.93 121.67 215.29 121 215.55 120.2C215.8 119.41 215.97 118.54 216.07 117.6C216.16 116.67 216.2 115.81 216.2 115.02Z" />
			<path id="path40" class="shp0" d="M129.6 166L129.6 147.97L125.03 151.51L122.01 147.39L130.09 141.45L135.4 141.45L135.4 166L129.6 166" />
			<path id="path42" class="shp0" d="M150.01 166L150.01 147.97L145.43 151.51L142.42 147.39L150.49 141.45L155.8 141.45L155.8 166L150.01 166Z" />
			<path id="path44" class="shp0" d="M170.33 166L170.33 147.97L165.75 151.51L162.74 147.39L170.81 141.45L176.12 141.45L176.12 166L170.33 166Z" />
			<path id="path46" fill-rule="evenodd" class="shp0" d="M201.13 153.66C201.13 155.39 200.95 157.04 200.6 158.61C200.25 160.19 199.7 161.57 198.94 162.76C198.18 163.95 197.19 164.9 195.97 165.6C194.76 166.31 193.29 166.66 191.56 166.66C189.82 166.66 188.34 166.31 187.12 165.6C185.9 164.9 184.9 163.95 184.12 162.76C183.34 161.57 182.79 160.19 182.44 158.61C182.09 157.04 181.92 155.39 181.92 153.66C181.92 151.93 182.09 150.28 182.44 148.72C182.79 147.16 183.34 145.8 184.12 144.63C184.9 143.46 185.9 142.53 187.12 141.83C188.34 141.15 189.82 140.8 191.56 140.8C193.29 140.8 194.76 141.15 195.97 141.83C197.19 142.53 198.18 143.46 198.94 144.63C199.7 145.8 200.25 147.16 200.6 148.72C200.95 150.28 201.13 151.93 201.13 153.66ZM195.02 151.13C194.93 150.2 194.75 149.34 194.51 148.55C194.25 147.75 193.89 147.08 193.41 146.54C192.94 145.99 192.32 145.72 191.56 145.72C190.79 145.72 190.17 145.99 189.68 146.54C189.2 147.08 188.82 147.75 188.56 148.55C188.29 149.34 188.11 150.2 188.02 151.13C187.93 152.05 187.88 152.9 187.88 153.66C187.88 154.44 187.93 155.3 188.02 156.24C188.11 157.18 188.29 158.04 188.56 158.84C188.82 159.64 189.2 160.31 189.68 160.85C190.17 161.4 190.79 161.67 191.56 161.67C192.32 161.67 192.94 161.4 193.41 160.85C193.89 160.31 194.25 159.64 194.51 158.84C194.75 158.04 194.93 157.18 195.02 156.24C195.11 155.3 195.16 154.44 195.16 153.66C195.16 152.9 195.11 152.05 195.02 151.13Z" />
			<path id="path48" class="shp0" d="M141.33 193.52L141.33 180.43L138.01 182.99L135.82 180.01L141.69 175.7L145.54 175.7L145.54 193.52L141.33 193.52Z" />
			<path id="path50" class="shp0" d="M170.8 193.52L170.8 180.43L167.47 182.99L165.28 180.01L171.15 175.7L175 175.7L175 193.52L170.8 193.52Z" />
			<path id="path52" fill-rule="evenodd" class="shp0" d="M133.89 184.56C133.89 185.82 133.76 187.02 133.51 188.16C133.26 189.3 132.85 190.3 132.3 191.16C131.75 192.03 131.03 192.72 130.15 193.23C129.27 193.74 128.2 193.99 126.94 193.99C125.68 193.99 124.61 193.74 123.72 193.23C122.83 192.72 122.1 192.03 121.54 191.16C120.98 190.3 120.57 189.3 120.32 188.16C120.07 187.02 119.94 185.82 119.94 184.56C119.94 183.3 120.07 182.1 120.32 180.97C120.57 179.84 120.98 178.85 121.54 178C122.1 177.16 122.83 176.48 123.72 175.97C124.61 175.47 125.68 175.22 126.94 175.22C128.2 175.22 129.27 175.47 130.15 175.97C131.03 176.48 131.75 177.16 132.3 178C132.85 178.85 133.26 179.84 133.51 180.97C133.76 182.1 133.89 183.3 133.89 184.56ZM129.56 184.56C129.56 184.01 129.53 183.39 129.46 182.72C129.39 182.05 129.27 181.43 129.08 180.84C128.9 180.27 128.63 179.78 128.29 179.39C127.94 178.99 127.49 178.8 126.94 178.8C126.39 178.8 125.93 178.99 125.58 179.39C125.23 179.78 124.96 180.27 124.77 180.84C124.57 181.43 124.44 182.05 124.37 182.72C124.31 183.39 124.27 184.01 124.27 184.56C124.27 185.13 124.31 185.75 124.37 186.43C124.44 187.11 124.57 187.75 124.77 188.32C124.96 188.9 125.23 189.39 125.58 189.78C125.93 190.18 126.39 190.37 126.94 190.37C127.49 190.37 127.94 190.18 128.29 189.78C128.63 189.39 128.9 188.9 129.08 188.32C129.27 187.75 129.39 187.11 129.46 186.43C129.53 185.75 129.56 185.13 129.56 184.56Z" />
			<path id="path54" fill-rule="evenodd" class="shp0" d="M163.52 184.56C163.52 185.82 163.39 187.02 163.14 188.16C162.89 189.3 162.48 190.3 161.93 191.16C161.37 192.03 160.66 192.72 159.78 193.23C158.9 193.74 157.83 193.99 156.57 193.99C155.31 193.99 154.24 193.74 153.35 193.23C152.46 192.72 151.73 192.03 151.17 191.16C150.61 190.3 150.2 189.3 149.95 188.16C149.7 187.02 149.57 185.82 149.57 184.56C149.57 183.3 149.7 182.1 149.95 180.97C150.2 179.84 150.61 178.85 151.17 178C151.73 177.16 152.46 176.48 153.35 175.97C154.24 175.47 155.31 175.22 156.57 175.22C157.83 175.22 158.9 175.47 159.78 175.97C160.66 176.48 161.37 177.16 161.93 178C162.48 178.85 162.89 179.84 163.14 180.97C163.39 182.1 163.52 183.3 163.52 184.56ZM159.19 184.56C159.19 184.01 159.16 183.39 159.09 182.72C159.02 182.05 158.9 181.43 158.71 180.84C158.53 180.27 158.26 179.78 157.92 179.39C157.57 178.99 157.13 178.8 156.57 178.8C156.02 178.8 155.56 178.99 155.21 179.39C154.86 179.78 154.58 180.27 154.4 180.84C154.2 181.43 154.07 182.05 154.01 182.72C153.94 183.39 153.9 184.01 153.9 184.56C153.9 185.13 153.94 185.75 154.01 186.43C154.07 187.11 154.2 187.75 154.4 188.32C154.58 188.9 154.86 189.39 155.21 189.78C155.56 190.18 156.02 190.37 156.57 190.37C157.13 190.37 157.57 190.18 157.92 189.78C158.26 189.39 158.53 188.9 158.71 188.32C158.9 187.75 159.02 187.11 159.09 186.43C159.16 185.75 159.19 185.13 159.19 184.56Z" />
			<path id="path56" class="shp0" d="M219.84 193.52L219.84 180.43L216.52 182.99L214.33 180.01L220.19 175.7L224.05 175.7L224.05 193.52L219.84 193.52Z" />
			<path id="path58" fill-rule="evenodd" class="shp0" d="M212.56 184.56C212.56 185.82 212.44 187.02 212.19 188.16C211.93 189.3 211.53 190.3 210.98 191.16C210.42 192.03 209.71 192.72 208.83 193.23C207.95 193.74 206.87 193.99 205.62 193.99C204.36 193.99 203.29 193.74 202.4 193.23C201.51 192.72 200.78 192.03 200.22 191.16C199.66 190.3 199.25 189.3 199 188.16C198.75 187.02 198.62 185.82 198.62 184.56C198.62 183.3 198.75 182.1 199 180.97C199.25 179.84 199.66 178.85 200.22 178C200.78 177.16 201.51 176.48 202.4 175.97C203.29 175.47 204.36 175.22 205.62 175.22C206.87 175.22 207.95 175.47 208.83 175.97C209.71 176.48 210.42 177.16 210.98 178C211.53 178.85 211.93 179.84 212.19 180.97C212.44 182.1 212.56 183.3 212.56 184.56ZM208.23 184.56C208.23 184.01 208.2 183.39 208.14 182.72C208.07 182.05 207.94 181.43 207.75 180.84C207.57 180.27 207.31 179.78 206.96 179.39C206.62 178.99 206.17 178.8 205.62 178.8C205.06 178.8 204.61 178.99 204.26 179.39C203.91 179.78 203.64 180.27 203.44 180.84C203.25 181.43 203.12 182.05 203.05 182.72C202.98 183.39 202.95 184.01 202.95 184.56C202.95 185.13 202.98 185.75 203.05 186.43C203.12 187.11 203.25 187.75 203.44 188.32C203.64 188.9 203.91 189.39 204.26 189.78C204.61 190.18 205.06 190.37 205.62 190.37C206.17 190.37 206.62 190.18 206.96 189.78C207.31 189.39 207.57 188.9 207.75 188.32C207.94 187.75 208.07 187.11 208.14 186.43C208.2 185.75 208.23 185.13 208.23 184.56Z" />
			<path id="path60" class="shp0" d="M203.67 214.51L203.67 201.43L200.35 203.99L198.16 200.99L204.02 196.69L207.87 196.69L207.87 214.51L203.67 214.51Z" />
			<path id="path62" fill-rule="evenodd" class="shp0" d="M196.39 205.55C196.39 206.81 196.27 208.01 196.02 209.15C195.77 210.29 195.36 211.3 194.81 212.16C194.25 213.03 193.54 213.71 192.66 214.22C191.78 214.73 190.7 214.99 189.45 214.99C188.19 214.99 187.11 214.73 186.22 214.22C185.33 213.71 184.61 213.03 184.05 212.16C183.48 211.3 183.08 210.29 182.83 209.15C182.58 208.01 182.45 206.81 182.45 205.55C182.45 204.3 182.58 203.1 182.83 201.97C183.08 200.83 183.48 199.84 184.05 198.99C184.61 198.15 185.33 197.47 186.22 196.97C187.11 196.47 188.19 196.21 189.45 196.21C190.7 196.21 191.78 196.47 192.66 196.97C193.54 197.47 194.25 198.15 194.81 198.99C195.36 199.84 195.77 200.83 196.02 201.97C196.27 203.1 196.39 204.3 196.39 205.55ZM192.06 205.55C192.06 205 192.03 204.39 191.96 203.71C191.9 203.05 191.77 202.42 191.58 201.84C191.4 201.26 191.14 200.78 190.79 200.38C190.45 199.99 190 199.79 189.45 199.79C188.89 199.79 188.44 199.99 188.09 200.38C187.73 200.78 187.46 201.26 187.27 201.84C187.08 202.42 186.95 203.05 186.88 203.71C186.81 204.39 186.78 205 186.78 205.55C186.78 206.13 186.81 206.75 186.88 207.43C186.95 208.1 187.08 208.74 187.27 209.32C187.46 209.9 187.73 210.38 188.09 210.78C188.44 211.17 188.89 211.36 189.45 211.36C190 211.36 190.45 211.17 190.79 210.78C191.14 210.38 191.4 209.9 191.58 209.32C191.77 208.74 191.9 208.1 191.96 207.43C192.03 206.75 192.06 206.13 192.06 205.55Z" />
			<path id="path64" class="shp0" d="M135.45 214.25L135.45 205.19L133.15 206.96L131.64 204.89L135.7 201.91L138.37 201.91L138.37 214.25L135.45 214.25Z" />
			<path id="path66" fill-rule="evenodd" class="shp0" d="M130.41 208.05C130.41 208.92 130.32 209.75 130.15 210.54C129.97 211.33 129.7 212.03 129.31 212.63C128.93 213.22 128.43 213.7 127.82 214.05C127.21 214.41 126.47 214.59 125.6 214.59C124.72 214.59 123.98 214.41 123.36 214.05C122.75 213.7 122.25 213.22 121.85 212.63C121.46 212.03 121.18 211.33 121.01 210.54C120.83 209.75 120.75 208.92 120.75 208.05C120.75 207.17 120.83 206.34 121.01 205.56C121.18 204.78 121.46 204.09 121.85 203.5C122.25 202.92 122.75 202.44 123.36 202.1C123.98 201.75 124.72 201.57 125.6 201.57C126.47 201.57 127.21 201.75 127.82 202.1C128.43 202.44 128.93 202.92 129.31 203.5C129.7 204.09 129.97 204.78 130.15 205.56C130.32 206.34 130.41 207.17 130.41 208.05ZM127.41 208.05C127.41 207.66 127.39 207.24 127.34 206.77C127.29 206.31 127.21 205.87 127.08 205.47C126.95 205.07 126.77 204.73 126.53 204.46C126.29 204.19 125.98 204.05 125.6 204.05C125.21 204.05 124.9 204.19 124.66 204.46C124.41 204.73 124.22 205.07 124.09 205.47C123.95 205.87 123.86 206.31 123.82 206.77C123.77 207.24 123.75 207.66 123.75 208.05C123.75 208.44 123.77 208.87 123.82 209.34C123.86 209.82 123.95 210.25 124.09 210.65C124.22 211.05 124.41 211.39 124.66 211.66C124.9 211.94 125.21 212.07 125.6 212.07C125.98 212.07 126.29 211.94 126.53 211.66C126.77 211.39 126.95 211.05 127.08 210.65C127.21 210.25 127.29 209.82 127.34 209.34C127.39 208.87 127.41 208.44 127.41 208.05Z" />
			<path id="path68" class="shp0" d="M171.7 230.11L171.7 221.05L169.4 222.82L167.89 220.75L171.95 217.77L174.61 217.77L174.61 230.11L171.7 230.11" />
			<path id="path70" fill-rule="evenodd" class="shp0" d="M166.66 223.91C166.66 224.78 166.57 225.61 166.4 226.4C166.22 227.19 165.94 227.89 165.56 228.48C165.18 229.08 164.68 229.56 164.07 229.92C163.46 230.27 162.72 230.44 161.84 230.44C160.97 230.44 160.23 230.27 159.61 229.92C158.99 229.56 158.49 229.08 158.1 228.48C157.71 227.89 157.43 227.19 157.26 226.4C157.08 225.61 156.99 224.78 156.99 223.91C156.99 223.04 157.08 222.2 157.26 221.42C157.43 220.64 157.71 219.95 158.1 219.36C158.49 218.78 158.99 218.31 159.61 217.96C160.23 217.61 160.97 217.44 161.84 217.44C162.72 217.44 163.46 217.61 164.07 217.96C164.68 218.31 165.18 218.78 165.56 219.36C165.94 219.95 166.22 220.64 166.4 221.42C166.57 222.2 166.66 223.04 166.66 223.91ZM163.66 223.91C163.66 223.52 163.64 223.1 163.59 222.63C163.54 222.17 163.46 221.73 163.33 221.33C163.2 220.93 163.02 220.59 162.78 220.32C162.54 220.05 162.23 219.91 161.84 219.91C161.46 219.91 161.15 220.05 160.91 220.32C160.66 220.59 160.47 220.93 160.34 221.33C160.2 221.73 160.11 222.17 160.07 222.63C160.02 223.1 159.99 223.52 159.99 223.91C159.99 224.3 160.02 224.73 160.07 225.2C160.11 225.68 160.2 226.11 160.34 226.52C160.47 226.92 160.66 227.25 160.91 227.53C161.15 227.8 161.46 227.93 161.84 227.93C162.23 227.93 162.54 227.8 162.78 227.53C163.02 227.25 163.2 226.92 163.33 226.52C163.46 226.11 163.54 225.68 163.59 225.2C163.64 224.73 163.66 224.3 163.66 223.91Z" />
			<path id="path72" fill-rule="evenodd" class="shp0" d="M225.8 205.55C225.8 206.81 225.67 208.01 225.42 209.15C225.17 210.29 224.77 211.3 224.21 212.16C223.66 213.03 222.94 213.71 222.06 214.22C221.18 214.73 220.11 214.99 218.85 214.99C217.59 214.99 216.52 214.73 215.63 214.22C214.75 213.71 214.02 213.03 213.45 212.16C212.89 211.3 212.48 210.29 212.23 209.15C211.98 208.01 211.85 206.81 211.85 205.55C211.85 204.3 211.98 203.1 212.23 201.97C212.48 200.83 212.89 199.84 213.45 198.99C214.02 198.15 214.75 197.47 215.63 196.97C216.52 196.47 217.59 196.21 218.85 196.21C220.11 196.21 221.18 196.47 222.06 196.97C222.94 197.47 223.66 198.15 224.21 198.99C224.77 199.84 225.17 200.83 225.42 201.97C225.67 203.1 225.8 204.3 225.8 205.55ZM221.47 205.55C221.47 205 221.44 204.39 221.37 203.71C221.3 203.05 221.18 202.42 220.99 201.84C220.81 201.26 220.54 200.78 220.2 200.38C219.85 199.99 219.41 199.79 218.85 199.79C218.3 199.79 217.84 199.99 217.49 200.38C217.14 200.78 216.87 201.26 216.68 201.84C216.48 202.42 216.35 203.05 216.29 203.71C216.22 204.39 216.19 205 216.19 205.55C216.19 206.13 216.22 206.75 216.29 207.43C216.35 208.1 216.48 208.74 216.68 209.32C216.87 209.9 217.14 210.38 217.49 210.78C217.84 211.17 218.3 211.36 218.85 211.36C219.41 211.36 219.85 211.17 220.2 210.78C220.54 210.38 220.81 209.9 220.99 209.32C221.18 208.74 221.3 208.1 221.37 207.43C221.44 206.75 221.47 206.13 221.47 205.55Z" />
			<path id="path74" class="shp0" d="M213.35 85.27C209.25 65.19 191.36 50.61 170.84 50.61C167.71 50.61 164.64 50.97 161.65 51.61C156.66 22.35 131.13 -0.01 100.46 -0.01C70.08 -0.01 44.75 21.94 39.43 50.8C17.35 52.81 0 71.42 0 94.01C0 117.94 19.47 137.4 43.4 137.4L108.32 137.4C111.64 137.4 114.32 134.72 114.32 131.4C114.32 128.09 111.64 125.4 108.32 125.4L43.4 125.4C26.08 125.4 12 111.32 12 94.01C12 76.7 26.08 62.61 43.4 62.61C49.69 62.61 55.75 64.46 60.94 67.97C63.69 69.82 67.42 69.1 69.28 66.36C71.13 63.61 70.41 59.88 67.66 58.03C62.76 54.71 57.29 52.5 51.54 51.41C56.44 28.9 76.51 11.99 100.46 11.99C125.98 11.99 147.09 31.18 150.15 55.89C148.54 56.76 146.96 57.72 145.46 58.81C142.77 60.75 142.17 64.49 144.1 67.18C146.05 69.87 149.8 70.47 152.48 68.54C157.85 64.66 164.2 62.61 170.84 62.61C185.69 62.61 198.63 73.15 201.59 87.68C202.18 90.52 204.68 92.47 207.47 92.47C207.86 92.47 208.27 92.43 208.68 92.35C211.92 91.69 214.02 88.52 213.35 85.27" />
		</g>
	</g>
</svg>